<svg xmlns="http://www.w3.org/2000/svg" xmlns:xlink="http://www.w3.org/1999/xlink" width="314.178" height="352.237"><defs><linearGradient id="a"><stop style="stop-color:#ff5c66;stop-opacity:1" offset="0"/><stop offset=".25" style="stop-color:#ff5c66;stop-opacity:1"/><stop offset=".5" style="stop-color:#ff4d5f;stop-opacity:1"/><stop style="stop-color:#ff4d5f;stop-opacity:1" offset=".75"/><stop style="stop-color:#ff5c66;stop-opacity:1" offset="1"/></linearGradient><linearGradient xlink:href="#a" id="c" gradientUnits="userSpaceOnUse" spreadMethod="reflect" x1="449.188" y1="307.4" x2="455.106" y2="306.9"/><linearGradient xlink:href="#a" id="b" gradientUnits="userSpaceOnUse" spreadMethod="repeat" x1="431.438" y1="309.15" x2="455.106" y2="306.9" gradientTransform="translate(81 -208)"/></defs><g style="display:inline"><path style="fill:url(#b);fill-opacity:1;fill-rule:nonzero;stroke:#000;stroke-width:7;stroke-linecap:butt;stroke-linejoin:round;stroke-miterlimit:4;stroke-opacity:1;stroke-dasharray:none" d="m288.188 43.315 10.52 126.234c112.968 15.048 179.753 1.356 230.514-18.752 6.903-54.492 2.249-156.145-5.031-122.117z" transform="translate(-240.876 172.8)"/><path style="fill:#9e6432;fill-opacity:1;stroke:#000;stroke-width:7;stroke-linecap:round;stroke-linejoin:round;stroke-miterlimit:4;stroke-opacity:1;stroke-dasharray:none;stroke-dashoffset:0" d="M526.863-21.44c16.327-27.268-13.457-47.961-61.152-56.588-275.394-47.724-234.593 186.29-140.559 130.063 17.939 12.948 43.214 14.89 75.756 5.932 15.336 7.69 32.582 9.652 51.569 6.39 22.41 1.245 44.015-.527 61.608-17.342 53.597-4.206 42.057-51.003 12.778-68.454z" transform="translate(-240.876 172.8)"/><path style="fill:#f5ff22;fill-opacity:1;stroke:#000;stroke-width:7;stroke-linecap:butt;stroke-linejoin:round;stroke-miterlimit:4;stroke-opacity:1;stroke-dasharray:none" d="m244.376-143.288 29.628 119.11 218.333-29.206L462.254-169.3 421.23-85.786l-59.256-75.756-32.362 82.601z" transform="translate(-240.876 172.8)"/></g></svg>