<?xml version="1.0" standalone="no"?>
<!DOCTYPE svg PUBLIC "-//W3C//DTD SVG 20010904//EN"
 "http://www.w3.org/TR/2001/REC-SVG-20010904/DTD/svg10.dtd">
<svg version="1.0" xmlns="http://www.w3.org/2000/svg"
 width="704.000000pt" height="704.000000pt" viewBox="0 0 704.000000 704.000000"
 preserveAspectRatio="xMidYMid meet">
<metadata>
Created by potrace 1.14, written by Peter Selinger 2001-2017
</metadata>
<g transform="translate(0.000000,704.000000) scale(0.100000,-0.100000)"
fill="#000000" stroke="none">
<path d="M4764 7022 c-21 -16 -124 -218 -124 -241 0 -6 -3 -11 -8 -11 -4 0
-13 -15 -21 -32 -8 -18 -65 -135 -127 -260 -61 -126 -110 -228 -108 -228 3 0
-3 -11 -11 -24 -9 -13 -44 -81 -78 -152 -35 -71 -72 -145 -82 -164 -11 -19
-19 -37 -20 -40 0 -3 -43 -93 -96 -200 -53 -107 -99 -203 -103 -213 -9 -27
-27 -12 -89 69 -29 39 -59 77 -66 85 -6 8 -84 106 -171 219 -163 209 -283 362
-432 551 -45 58 -94 121 -108 139 -35 47 -144 184 -150 190 -3 3 -31 40 -63
82 -52 68 -74 87 -113 94 -28 5 -57 -41 -112 -181 -32 -82 -62 -159 -67 -170
-4 -11 -9 -24 -11 -30 -2 -8 -100 -258 -129 -330 -5 -11 -9 -22 -10 -25 -1 -3
-7 -18 -14 -35 -6 -16 -30 -77 -52 -135 -22 -58 -46 -118 -53 -135 -14 -32
-150 -377 -152 -385 0 -3 -6 -18 -13 -35 -6 -16 -21 -54 -33 -83 -23 -60 -31
-67 -50 -49 -7 7 -78 61 -158 120 -80 59 -152 113 -160 120 -94 75 -151 117
-159 117 -5 0 -11 4 -13 8 -2 4 -50 44 -108 87 -58 43 -107 81 -110 84 -3 3
-21 17 -40 31 -19 13 -39 28 -45 32 -11 9 -60 46 -115 88 -18 14 -48 36 -66
50 -18 14 -81 61 -141 105 -59 44 -110 82 -113 85 -3 3 -32 25 -65 50 -33 25
-64 49 -70 53 -5 4 -53 40 -105 79 -176 133 -188 138 -229 94 -20 -21 -22 -31
-16 -72 3 -26 9 -52 12 -57 3 -5 12 -36 20 -70 8 -34 16 -69 18 -77 5 -17 39
-157 61 -245 8 -33 17 -68 19 -77 3 -10 7 -26 9 -35 3 -10 12 -47 21 -83 9
-36 21 -83 26 -105 5 -22 14 -58 20 -80 6 -22 12 -49 14 -60 1 -11 5 -27 8
-35 7 -15 64 -244 73 -290 3 -14 8 -34 11 -45 4 -11 8 -24 9 -30 1 -5 5 -21 8
-35 2 -14 21 -90 41 -170 20 -80 38 -153 40 -162 2 -9 16 -61 30 -115 15 -54
29 -109 31 -123 9 -50 18 -88 27 -110 18 -49 17 -73 -6 -103 -30 -40 -119
-191 -140 -237 -74 -164 -128 -337 -143 -459 -25 -212 -19 -366 21 -536 64
-275 210 -500 418 -644 55 -37 177 -95 225 -105 26 -6 32 -13 33 -34 0 -15 2
-40 4 -57 5 -58 16 -190 20 -240 2 -27 6 -79 9 -115 3 -36 8 -94 11 -130 3
-36 8 -90 11 -120 3 -30 7 -82 10 -115 2 -33 6 -80 8 -105 2 -25 7 -81 10
-125 4 -44 9 -104 12 -133 6 -64 12 -142 19 -237 2 -38 7 -95 11 -125 3 -30 8
-84 10 -120 3 -36 7 -90 10 -120 2 -30 6 -80 9 -110 3 -48 7 -87 20 -240 2
-19 4 -38 4 -42 2 -17 51 -39 97 -43 27 -3 56 -7 64 -10 8 -2 44 -7 80 -10 36
-3 79 -8 95 -11 17 -3 46 -7 65 -9 130 -11 179 -16 207 -20 18 -3 63 -7 100
-10 37 -3 93 -8 123 -11 55 -6 156 -13 260 -18 30 -2 116 -7 190 -12 74 -4
324 -8 555 -8 375 0 520 4 705 19 30 2 87 7 125 10 39 3 86 7 105 9 19 3 62 7
95 11 33 3 71 8 85 10 14 2 45 7 70 10 25 3 61 7 80 10 19 2 55 7 80 10 25 3
52 8 60 10 8 3 31 7 50 9 65 10 105 17 130 23 14 3 34 8 45 9 20 4 80 15 100
19 6 2 37 8 70 16 33 7 65 13 70 15 6 1 30 7 55 14 25 7 55 14 68 16 22 4 164
43 257 70 28 8 57 17 65 19 8 2 44 13 80 25 36 12 70 23 75 24 6 2 18 6 28 9
9 4 25 10 35 14 9 3 22 7 29 9 50 10 302 111 320 128 23 22 28 39 38 146 4 36
8 76 10 90 4 27 14 152 20 260 2 36 6 114 10 174 9 157 20 731 14 761 -1 6 -1
14 0 18 5 29 -5 418 -14 584 l-7 112 41 18 c23 10 41 21 41 25 0 5 6 8 14 8 8
0 21 6 28 12 7 7 29 25 49 40 34 25 76 65 106 102 44 52 96 163 110 236 10 46
10 235 1 265 -5 17 -11 39 -13 49 -20 90 -83 224 -153 323 -63 91 -213 241
-280 282 -11 7 -10 15 3 47 39 90 49 140 48 246 -2 185 -90 331 -300 497 -29
23 -53 38 -53 34 0 -3 -10 3 -22 14 -51 47 -388 202 -470 217 -41 7 -47 13
-54 54 -4 20 -9 42 -13 47 -3 6 -7 17 -8 25 -1 8 -14 60 -28 115 -15 55 -44
168 -65 250 -21 83 -46 177 -55 210 -9 33 -18 67 -20 75 -2 8 -13 51 -25 95
-12 44 -23 91 -26 105 -3 14 -9 39 -15 56 -5 17 -11 40 -13 50 -3 10 -19 73
-36 139 -18 66 -36 136 -40 155 -4 19 -18 71 -30 115 -12 44 -23 87 -25 95 -2
8 -9 35 -16 60 -7 25 -13 50 -14 55 -22 107 -59 223 -77 238 -26 22 -57 21
-84 -1z"/>
</g>
</svg>
