<svg width="1068.2" height="577.93" xml:space="preserve" xmlns="http://www.w3.org/2000/svg"><style>.st0{fill:#f7dd2b;stroke:#000;stroke-width:8;stroke-miterlimit:10}</style><g transform="translate(-407.34 -197.19)"><circle class="st0" cx="635.34" cy="423.87" r="111"/><path class="st0" d="m571.999 207.452 23.438-5.158 18.052 82.035-23.439 5.157zM499.383 380.628l-5.4 23.383-81.84-18.9 5.4-23.383zM498.269 456.233l8.076 22.601-79.103 28.266-8.076-22.6zM530.077 515.822l16.97 16.97-59.396 59.397-16.97-16.97zM787.215 258.682l16.97 16.97-59.396 59.397-16.97-16.97zM691.286 202.219l22.85 7.336-25.679 79.977-22.85-7.337zM543.087 317.08l-16.97 16.97-59.397-59.396 16.97-16.97z"/><path d="M966 299.87c-248.52 0-450 205.29-450 458.52 0 3.84.05 7.66.14 11.48h75.62c-.01-.8-.02-1.6-.02-2.4 0-210.61 167.56-381.35 374.26-381.35s374.26 170.73 374.26 381.35c0 .8-.01 1.6-.02 2.4h75.62c.1-3.81.14-7.64.14-11.48 0-253.23-201.48-458.52-450-458.52z" style="fill:#e42f10;stroke:#000;stroke-width:8;stroke-miterlimit:10"/><path d="M966 366.87c-213.18 0-386 179.3-386 400.48 0 .84.01 1.68.02 2.52h73.53c0-.84-.03-1.68-.03-2.52 0-179.05 139.9-324.2 312.48-324.2s312.48 145.15 312.48 324.2c0 .84-.03 1.68-.03 2.52h73.53c.01-.84.02-1.68.02-2.52 0-221.18-172.82-400.48-386-400.48z" style="fill:#f58b24;stroke:#000;stroke-width:8;stroke-miterlimit:10"/><path d="M965.5 428.87c-178.11 0-322.5 151.49-322.5 338.37 0 .88.03 1.75.03 2.63h66.4c-.01-.88-.03-1.75-.03-2.63 0-145.66 114.66-263.73 256.1-263.73s256.1 118.07 256.1 263.73c0 .88-.03 1.75-.03 2.63h66.4c0-.88.03-1.75.03-2.63 0-186.88-144.39-338.37-322.5-338.37z" style="fill:#eeec34;stroke:#000;stroke-width:8;stroke-miterlimit:10"/><path d="M966.5 493.87c-143.87 0-260.5 122.35-260.5 273.28 0 .91.02 1.82.03 2.72h72.36c-.01-.91-.03-1.82-.03-2.72 0-111.06 84.23-201.09 188.14-201.09s188.14 90.03 188.14 201.09c0 .91-.02 1.82-.03 2.72h72.36c0-.91.03-1.82.03-2.72 0-150.93-116.63-273.28-260.5-273.28z" style="fill:#018037;stroke:#000;stroke-width:8;stroke-miterlimit:10"/><path d="M969 558.55c-112.67 0-204 93.34-204 208.5 0 .94.02 1.88.03 2.82h61.72c-.01-.94-.03-1.88-.03-2.82 0-80.31 63.7-145.41 142.28-145.41s142.28 65.1 142.28 145.41c0 .94-.02 1.88-.03 2.82h61.72c.01-.94.03-1.88.03-2.82 0-115.16-91.33-208.5-204-208.5z" style="fill:#3e4aa0;stroke:#000;stroke-width:8;stroke-miterlimit:10"/><path d="M968 611.87c80.01 0 145.19 70.73 146 158h-47.56c-.05-3.77-.28-7.49-.68-11.15-5.81-53.34-47.43-94.84-97.75-94.84-1.68 0-3.39.05-5.06.14-15.17.84-29.97 5.58-43.13 13.66-.12.08-.24.16-.37.24A98.378 98.378 0 0 0 903 690.71c-4.43 4.27-8.47 8.97-12.11 14-5.29 7.31-9.69 15.33-13.09 23.85-2.95 7.38-5.16 15.11-6.52 23.05-.89 5.17-1.41 10.39-1.61 15.57-.03.9-.08 1.81-.09 2.71H822c.81-87.29 65.99-158.02 146-158.02z" style="fill:#731985;stroke:#000;stroke-width:8;stroke-miterlimit:10"/></g><path d="M1057.6 771.12c-74.37-30.56-37.52-133.59 29.91-105.82-15.58-125.07 100.1-146.3 147.96-98.95 64.06-91.55 188.26-33.83 169.85 81.09 8.34.2 38.71-10.28 58.66 26.54 18.03 33.28 2.18 74.68-29.51 95.9-.01 0-328.24 1.24-376.87 1.24z" style="fill:#fff;stroke:#000;stroke-width:8;stroke-miterlimit:10" transform="translate(-407.34 -197.19)" id="Cloud"/></svg>