<?xml version="1.0" standalone="no"?>
<!DOCTYPE svg PUBLIC "-//W3C//DTD SVG 20010904//EN"
 "http://www.w3.org/TR/2001/REC-SVG-20010904/DTD/svg10.dtd">
<svg version="1.0" xmlns="http://www.w3.org/2000/svg"
 width="1068.000000pt" height="1068.000000pt" viewBox="0 0 1068.000000 1068.000000"
 preserveAspectRatio="xMidYMid meet">
<metadata>
Created by potrace 1.14, written by Peter Selinger 2001-2017
</metadata>
<g transform="translate(0.000000,1068.000000) scale(0.100000,-0.100000)"
fill="#000000" stroke="none">
<path d="M1740 8195 c-105 -23 -144 -36 -143 -46 2 -14 109 -510 163 -753 16
-70 31 -131 35 -134 12 -12 315 57 315 72 0 6 -43 210 -97 454 -78 355 -100
442 -112 441 -9 -1 -81 -16 -161 -34z"/>
<path d="M2801 8208 c-47 -127 -271 -851 -265 -857 9 -9 270 -93 292 -95 9 -1
58 137 147 414 74 228 137 427 140 441 6 26 4 27 -138 73 -80 25 -150 46 -156
46 -6 0 -15 -10 -20 -22z"/>
<path d="M642 7567 l-112 -112 330 -330 330 -330 117 118 118 117 -325 325
c-179 179 -329 325 -335 325 -6 0 -61 -51 -123 -113z"/>
<path d="M3467 7352 c-174 -174 -317 -322 -317 -327 0 -6 51 -61 113 -123
l112 -112 328 328 327 327 -113 113 c-62 61 -117 112 -122 112 -6 0 -153 -143
-328 -318z"/>
<path d="M5295 7240 c-696 -52 -1354 -250 -1932 -583 l-113 -65 -50 68 c-161
217 -414 377 -690 436 -112 24 -353 24 -458 0 -252 -56 -449 -168 -619 -350
-467 -502 -393 -1294 160 -1710 42 -32 77 -60 77 -62 0 -3 -23 -45 -51 -95
-367 -651 -578 -1479 -579 -2266 l0 -153 1815 0 1815 0 0 63 c0 85 24 228 54
313 113 334 359 571 677 655 114 31 298 31 414 0 84 -22 283 -115 292 -136 2
-7 -3 -30 -11 -50 -49 -115 -61 -283 -31 -400 44 -172 171 -330 333 -414 l84
-43 1897 3 1897 4 45 29 c62 41 168 150 218 225 97 142 141 285 141 450 0 119
-15 193 -60 288 -104 225 -265 334 -490 334 l-95 1 3 134 c11 401 -157 761
-445 952 -42 27 -63 53 -109 130 -448 756 -1106 1376 -1871 1765 -480 244
-1019 403 -1568 462 -167 18 -595 27 -750 15z m3942 -2315 c274 -54 525 -273
637 -557 51 -131 69 -230 70 -393 1 -82 -3 -183 -8 -223 l-8 -72 143 6 c130 6
150 4 203 -14 85 -31 156 -89 215 -177 185 -277 114 -650 -171 -898 l-58 -50
-1878 -5 -1879 -5 -64 34 c-90 47 -207 165 -246 249 -45 95 -56 157 -51 269
11 201 121 366 288 433 43 17 76 22 150 22 91 0 149 -13 253 -59 17 -7 18 -2
10 91 -34 408 40 689 234 895 156 165 359 250 602 250 219 0 403 -67 553 -200
l56 -51 47 65 c164 230 406 380 651 403 93 9 153 6 251 -13z"/>
<path d="M65 6628 c-11 -35 -65 -280 -65 -295 0 -16 62 -33 446 -121 311 -72
449 -100 454 -92 12 19 73 301 66 307 -3 4 -194 50 -423 103 -230 53 -430 100
-446 103 -19 5 -29 3 -32 -5z"/>
<path d="M490 5539 c-228 -83 -418 -153 -421 -157 -9 -10 95 -295 109 -300 20
-6 862 300 862 313 0 10 -70 213 -95 278 -4 9 -15 17 -24 16 -9 0 -203 -68
-431 -150z"/>
<path d="M890 4775 l-325 -325 118 -118 117 -117 330 330 330 330 -112 112
c-62 62 -117 113 -123 113 -6 0 -156 -146 -335 -325z"/>
</g>
</svg>
